<svg xmlns="http://www.w3.org/2000/svg" viewBox="0 0 506.09 506.09"><defs><style>.cls-1{fill:#e31f2b;fill-rule:evenodd;}.cls-2{fill:#fff;}</style></defs><title>logo-tr</title><g id="Слой_2" data-name="Слой 2"><g id="Слой_1-2" data-name="Слой 1"><path class="cls-1" d="M253,506.09c139.76,0,253.05-113.29,253.05-253S392.8,0,253,0,0,113.29,0,253,113.29,506.09,253,506.09"/><path class="cls-2" d="M95,314.67l17.17-46.55h17.35v1.75h-7.06v56.55h7.06v1.84H105.1v-1.84h7.06V273.63L91.78,329.36H90.12L68.83,274.08V318.8a9.85,9.85,0,0,0,1.21,5q1.21,2.09,5.76,2.58v1.84H59.46v-1.84q4.49,0,6-2.58a10.21,10.21,0,0,0,1.48-5.13V275.09q0-5.22-5.6-5.22H59.64l.09-1.75H77.08Z"/><path class="cls-2" d="M154.57,317.61l27.07-41.69v-6h-6.41v-1.84H199V270h-7.08v56.46H199v1.84H175.23v-1.84h6.41V279.24l-27.07,42.14v5H161v1.84H137.22v-1.84h7.06V270h-7.06v-1.84H161V270h-6.43Z"/><path class="cls-2" d="M252.27,308.24h2.2l-.74,20h-2.38q-.27-3.67-2.93-3.68a8,8,0,0,0-3.86,1.48,23.58,23.58,0,0,1-11.68,3.21A22.85,22.85,0,0,1,221,326a25.61,25.61,0,0,1-9.09-9.48,33.22,33.22,0,0,1-4.13-14.37v-5.9A37.4,37.4,0,0,1,210.56,284a29.34,29.34,0,0,1,6.09-9.21,26,26,0,0,1,8.43-5.75,24.75,24.75,0,0,1,9.64-1.95,14.57,14.57,0,0,1,3.77.36,11.76,11.76,0,0,1,2.48,1.07,11.6,11.6,0,0,0,2.41,1.07,13.43,13.43,0,0,0,3.56.35,3.58,3.58,0,0,0,3.67-2.85h2.2l.18,19.57h-2q-1-9-4.65-13.43t-11-4.39a14.67,14.67,0,0,0-7.72,2.19,15.91,15.91,0,0,0-5.94,7.41q-2.33,5.22-2.32,13.8v14.88q0,7.78,2.6,12.37a14.45,14.45,0,0,0,6.18,6.3,16.17,16.17,0,0,0,7,1.71A15,15,0,0,0,242,325.8a16.55,16.55,0,0,0,6.2-6A31.65,31.65,0,0,0,252.27,308.24Z"/><path class="cls-2" d="M306.45,308.24h2.19l-.73,20h-2.38q-.27-3.67-2.94-3.68a7.92,7.92,0,0,0-3.85,1.48,23.6,23.6,0,0,1-11.68,3.21A22.89,22.89,0,0,1,275.12,326a25.68,25.68,0,0,1-9.09-9.48,33.21,33.21,0,0,1-4.12-14.37v-5.9A37.65,37.65,0,0,1,264.73,284a29.54,29.54,0,0,1,6.1-9.21,25.88,25.88,0,0,1,8.43-5.75,24.75,24.75,0,0,1,9.64-1.95,14.43,14.43,0,0,1,3.76.36,12.06,12.06,0,0,1,2.49,1.07,11.6,11.6,0,0,0,2.41,1.07,13.34,13.34,0,0,0,3.55.35,3.58,3.58,0,0,0,3.68-2.85H307l.18,19.57h-2q-1-9-4.65-13.43t-11-4.39a14.64,14.64,0,0,0-7.72,2.19,15.79,15.79,0,0,0-5.94,7.41q-2.32,5.22-2.32,13.8v14.88q0,7.78,2.6,12.37a14.48,14.48,0,0,0,6.17,6.3,16.21,16.21,0,0,0,7,1.71,15,15,0,0,0,6.85-1.72,16.46,16.46,0,0,0,6.19-6A31.64,31.64,0,0,0,306.45,308.24Z"/><path class="cls-2" d="M332.43,317.61l27.07-41.69v-6h-6.41v-1.84h23.79V270h-7.09v56.46h7.09v1.84H353.09v-1.84h6.41V279.24l-27.07,42.14v5h6.43v1.84H315.08v-1.84h7.06V270h-7.06v-1.84h23.78V270h-6.43Z"/><path class="cls-2" d="M423.41,326.42v-29h-8.63a29.41,29.41,0,0,0-5.6.4,5.42,5.42,0,0,0-3.17,2,13.81,13.81,0,0,0-2.17,5.23,96.3,96.3,0,0,0-1.65,10.33,47,47,0,0,1-1.34,7.7,8.3,8.3,0,0,1-3.05,4.46q-2.24,1.69-6.61,1.7a12.82,12.82,0,0,1-5.22-1.19,11,11,0,0,1-4.5-3.77l1.46-1.48a15.35,15.35,0,0,0,2.24,2.08,4.07,4.07,0,0,0,2.26,1.06,2.66,2.66,0,0,0,2.57-1.92,15.17,15.17,0,0,0,1-4.65c.14-1.82.27-3.7.41-5.64a36.51,36.51,0,0,1,1.58-8,11.69,11.69,0,0,1,4.64-5.6q3.57-2.51,10.77-3.43v-.44a28.19,28.19,0,0,1-11.94-3.86q-5.6-3.3-5.59-10.94,0-5.76,3.64-8.73a18.58,18.58,0,0,1,9-3.82,79.68,79.68,0,0,1,12.42-.85h24.88v1.75H433.7v56.55h7.08v1.84H416.33v-1.84Zm0-30.84V269.87h-7c-4.07,0-7.14.53-9.19,1.59a7.55,7.55,0,0,0-4,4,17.81,17.81,0,0,0-.87,5.94,25.32,25.32,0,0,0,.77,6.46,9.73,9.73,0,0,0,4,5.32q3.22,2.37,9.79,2.37Z"/><path class="cls-2" d="M199.37,175.83v-26h-3v-.8h10.88v.8h-3.2v26h3.08l1,8.51h-1a11.19,11.19,0,0,0-1.65-4.6,6.29,6.29,0,0,0-3.1-2.38,14.54,14.54,0,0,0-4.78-.68h-18.5v-.85h3.24v-26h-3.24v-.8h10.91v.8h-3v26Z"/><path class="cls-2" d="M226,171.67l.72.46a12.88,12.88,0,0,1-3.39,3.74,7.18,7.18,0,0,1-4.24,1.27,9,9,0,0,1-4.67-1.23,8.41,8.41,0,0,1-3.23-3.38,10.6,10.6,0,0,1,0-9.68,8.89,8.89,0,0,1,3.15-3.39,7.77,7.77,0,0,1,4.14-1.2,9,9,0,0,1,3.61.76,7,7,0,0,1,3,2.66,10.14,10.14,0,0,1,1.44,5h-11.8l0,2.91a14.18,14.18,0,0,0,.79,4.7c.49,1.3,1.6,1.95,3.34,1.95Q222.79,176.25,226,171.67ZM214.75,166h7.42c0-.13,0-.34,0-.62s0-.5,0-.64a10,10,0,0,0-.73-4.27,2.8,2.8,0,0,0-2.77-1.5,3.29,3.29,0,0,0-3.08,1.41,5.71,5.71,0,0,0-.84,3Z"/><path class="cls-2" d="M235.15,158.51V161a4.9,4.9,0,0,1,1.7-2,4.29,4.29,0,0,1,2.52-.76,7.84,7.84,0,0,1,3.93,1.12,8.89,8.89,0,0,1,3.25,3.28,10,10,0,0,1-1.18,11.55,9,9,0,0,1-2.82,2.15,7.92,7.92,0,0,1-3.48.78,4.29,4.29,0,0,1-3.92-2v9.83h2.65v.72h-9.43v-.72H231V159.44h-2.65v-.72h4.16A16.07,16.07,0,0,0,235.15,158.51Zm8,11.62v-5.6q0-5.47-3.78-5.47a3.84,3.84,0,0,0-2.15.63,4.29,4.29,0,0,0-1.5,1.66,4.73,4.73,0,0,0-.53,2.17v9.39a3.19,3.19,0,0,0,1.23,2.48,4.16,4.16,0,0,0,2.77,1.07,3.57,3.57,0,0,0,2.75-1.4Q243.12,173.67,243.11,170.13Z"/><path class="cls-2" d="M256.39,166.82h1.52a2.8,2.8,0,0,0,2.51-1,7.18,7.18,0,0,0,1-2.66,17.66,17.66,0,0,1,.72-2.75,3.27,3.27,0,0,1,1.14-1.57,3.88,3.88,0,0,1,4.41.27,2.74,2.74,0,0,1,.93,2.12,2.83,2.83,0,0,1-.61,1.88,2.07,2.07,0,0,1-1.66.73,2.44,2.44,0,0,1-1.55-.5,1.57,1.57,0,0,1-.64-1.31,3.73,3.73,0,0,1,.12-.94,1.61,1.61,0,0,1,.08-.23,1,1,0,0,0,0-.27c0-.39-.34-.59-1-.59-.41,0-.8,1.1-1.17,3.29a10.53,10.53,0,0,1-.82,2.56,2.24,2.24,0,0,1-1.41,1.11v.13c2.48.14,4.12.68,4.92,1.6a7,7,0,0,1,1.48,3.75,11.85,11.85,0,0,0,.44,2.26.93.93,0,0,0,.95.69,1.7,1.7,0,0,0,1-.34,2.29,2.29,0,0,0,.73-.8l.54.3a4.16,4.16,0,0,1-1.75,1.93,5.07,5.07,0,0,1-2.58.68,3,3,0,0,1-2.27-.79,3.75,3.75,0,0,1-1-1.7A25.59,25.59,0,0,1,262,172a9.68,9.68,0,0,0-.81-3.06,2.46,2.46,0,0,0-1.21-1.24,5.58,5.58,0,0,0-1.81-.24h-.9l-.92,0V176H259v.73h-9.43V176h2.65V159.44h-2.65v-.72H259v.72h-2.65Z"/><path class="cls-2" d="M271.44,167.7a9.78,9.78,0,0,1,1.12-4.52,9.12,9.12,0,0,1,3.19-3.56,8.56,8.56,0,0,1,4.8-1.36,8.39,8.39,0,0,1,4.77,1.37,9.37,9.37,0,0,1,3.23,3.56,9.66,9.66,0,0,1,1.15,4.51,9.46,9.46,0,0,1-.65,3.41,10.05,10.05,0,0,1-1.85,3,9,9,0,0,1-2.92,2.17,8.62,8.62,0,0,1-3.73.81,8.53,8.53,0,0,1-4.78-1.37,9.23,9.23,0,0,1-3.2-3.54A9.74,9.74,0,0,1,271.44,167.7Zm4.77-3c0,.7,0,1.75,0,3.16a26.19,26.19,0,0,0,.37,5,4.91,4.91,0,0,0,1.32,2.72,4.53,4.53,0,0,0,5.18.15,4.85,4.85,0,0,0,1.44-2.64,21.92,21.92,0,0,0,.49-5.26,31.11,31.11,0,0,0-.28-4.59,6.23,6.23,0,0,0-1.26-3,3.44,3.44,0,0,0-2.84-1.18,3.92,3.92,0,0,0-3,1.41A6.59,6.59,0,0,0,276.21,164.67Z"/><path class="cls-2" d="M294.12,176V159.44h-2.65v-.72h9.86q3.92,0,5.6,1.09a3.23,3.23,0,0,1,1.69,2.79,3.9,3.9,0,0,1-1.33,2.87A6.78,6.78,0,0,1,303.1,167v.16a9.63,9.63,0,0,1,4.73,1.41,3.49,3.49,0,0,1,1.76,2.93,4.26,4.26,0,0,1-1,2.82,6,6,0,0,1-2.42,1.75,7.51,7.51,0,0,1-2.75.58h-12V176Zm4.13-9.13h2.65c2,0,3-.91,3.13-2.71v-1.39a4.21,4.21,0,0,0-.66-2.43c-.41-.57-1.37-.85-2.89-.85h-2.23Zm0,9.13h3.17a3.68,3.68,0,0,0,2.55-.81c.6-.55.9-1.73.9-3.56a5.2,5.2,0,0,0-.75-3.05,3,3,0,0,0-2.62-1h-3.25Z"/><path class="cls-2" d="M318.4,166.22h2a12.34,12.34,0,0,1,4.81.8,5.7,5.7,0,0,1,2.64,2,4.52,4.52,0,0,1,.09,4.94,5.1,5.1,0,0,1-2.24,1.94,8.86,8.86,0,0,1-4,.78H311.62V176h2.65V159.44h-2.65v-.72h9.43v.72H318.4Zm0,9.73H320a8.87,8.87,0,0,0,2.2-.2,1.93,1.93,0,0,0,1.21-1,5.14,5.14,0,0,0,.47-2.5,20.56,20.56,0,0,0-.16-3,2.69,2.69,0,0,0-.91-1.67,3.68,3.68,0,0,0-2.39-.63h-2Z"/><rect class="cls-2" x="143.41" y="408.67" width="220.95" height="2"/><path class="cls-2" d="M115,220.37v-1.89h8.9v1.89Z"/><path class="cls-2" d="M142.21,210.81l4.22-6.45a3,3,0,0,0,.37-1.65,1.24,1.24,0,0,0-.68-1,3,3,0,0,0-1.76-.46h-.59v-.8H153v.8a6.93,6.93,0,0,0-3.34.91,9,9,0,0,0-2.4,2.72l-4.43,6.83L153,227.21h2.44v.84H144.24v-.84h3.28l-7.84-11.81L134.79,223a3.52,3.52,0,0,0-.58,1.82,2.31,2.31,0,0,0,.67,1.56,3.86,3.86,0,0,0,2.61.88v.84H127.8v-.84A10.41,10.41,0,0,0,131,226a7.61,7.61,0,0,0,2.24-2.33l6-9.15-8.94-13.28H127.8v-.8h10.79v.8h-2.75Z"/><path class="cls-2" d="M163.87,209.89v2.52a5.08,5.08,0,0,1,1.7-2,4.33,4.33,0,0,1,2.52-.76,7.84,7.84,0,0,1,3.93,1.12,9,9,0,0,1,3.26,3.29,9.83,9.83,0,0,1,1.28,5.08,9.63,9.63,0,0,1-.63,3.42,9.8,9.8,0,0,1-1.83,3.05,8.94,8.94,0,0,1-2.82,2.14,7.93,7.93,0,0,1-3.49.78,4.32,4.32,0,0,1-3.92-2v9.82h2.66V237h-9.44v-.72h2.66V210.81h-2.66v-.72h4.17A17,17,0,0,0,163.87,209.89Zm8,11.62V215.9c0-3.64-1.26-5.47-3.79-5.47a3.81,3.81,0,0,0-2.14.63,4.29,4.29,0,0,0-1.5,1.66,4.66,4.66,0,0,0-.54,2.18v9.39a3.22,3.22,0,0,0,1.24,2.48,4.11,4.11,0,0,0,2.77,1.06,3.57,3.57,0,0,0,2.75-1.39Q171.85,225,171.84,221.51Z"/><path class="cls-2" d="M185.11,224.21l7.18-12.09v-1.31h-2.37v-.72h9.15v.72h-2.66v16.52h2.66v.72h-9.15v-.72h2.37V213.55l-7.18,12.1v1.68h2.37v.72h-9.15v-.72H181V210.81h-2.66v-.72h9.15v.72h-2.37Z"/><path class="cls-2" d="M215.72,223.37l.68.3q-1.82,4.85-6.33,4.84a9.1,9.1,0,0,1-4.84-1.29,8.87,8.87,0,0,1-3.26-3.48,9.9,9.9,0,0,1-.09-9,9.17,9.17,0,0,1,3.14-3.65,8.61,8.61,0,0,1,5-1.45,8,8,0,0,1,3.19.62,5.61,5.61,0,0,1,2.22,1.64,3.41,3.41,0,0,1,.78,2.12,2.82,2.82,0,0,1-.69,2,2.24,2.24,0,0,1-1.7.75A2.47,2.47,0,0,1,212,216a2.54,2.54,0,0,1-.73-1.85,2.6,2.6,0,0,1,.25-1,4.08,4.08,0,0,1,.59-1,1.55,1.55,0,0,0,.39-.75c0-.25-.19-.49-.58-.73a3.25,3.25,0,0,0-1.71-.36,6.75,6.75,0,0,0-2.26.35,3.22,3.22,0,0,0-1.67,1.69,8.81,8.81,0,0,0-.7,4v5.31a8.6,8.6,0,0,0,1,4.53c.66,1.05,1.87,1.58,3.64,1.58a5.07,5.07,0,0,0,3.35-1.08A8.29,8.29,0,0,0,215.72,223.37Z"/><path class="cls-2" d="M235,210.09l.38,6.84h-.88a10,10,0,0,0-1.88-4.46,4.9,4.9,0,0,0-4-1.66v16.52h2.66v.72H221.8v-.72h2.65V210.81a5.33,5.33,0,0,0-2.94.73,4.88,4.88,0,0,0-1.75,2,20,20,0,0,0-1.21,3.39h-.89l.38-6.84Z"/><path class="cls-2" d="M243.33,224.21l7.17-12.09v-1.31h-2.37v-.72h9.15v.72h-2.65v16.52h2.65v.72h-9.15v-.72h2.37V213.55l-7.17,12.1v1.68h2.36v.72h-9.14v-.72h2.65V210.81h-2.65v-.72h9.14v.72h-2.36Z"/><path class="cls-2" d="M277.35,225.82l.58.54a4.88,4.88,0,0,1-4.2,2.15,3.38,3.38,0,0,1-3.5-2.73,9.53,9.53,0,0,1-6.16,2.73,5,5,0,0,1-3.55-1.25,4.41,4.41,0,0,1-1.35-3.39,5,5,0,0,1,2.47-4.38c1.64-1.06,4-1.6,7.19-1.6.61,0,1.08,0,1.4.05v-4.73a3.67,3.67,0,0,0-.52-2.06c-.35-.5-1.12-.76-2.31-.76a6.68,6.68,0,0,0-1.87.24c-.55.16-.83.39-.83.69a2.92,2.92,0,0,0,.42,1.43,2.56,2.56,0,0,1,.55,1.39A2.82,2.82,0,0,1,265,216a2.32,2.32,0,0,1-1.92.79,2.39,2.39,0,0,1-1.92-.81,3.05,3.05,0,0,1-.7-2.09,3,3,0,0,1,1.06-2.29,6.85,6.85,0,0,1,2.67-1.45,11.24,11.24,0,0,1,3.23-.48,10.15,10.15,0,0,1,4.65.82,3.63,3.63,0,0,1,1.89,1.89,7.52,7.52,0,0,1,.37,2.48v11c0,.92.33,1.39,1,1.39a2,2,0,0,0,1.08-.43A3.64,3.64,0,0,0,277.35,225.82Zm-7.12-1.35v-5.86a13.4,13.4,0,0,0-3.75.41,3.21,3.21,0,0,0-2,1.53,6.94,6.94,0,0,0-.62,3.28,2.57,2.57,0,0,0,2.91,2.91,3.71,3.71,0,0,0,1.27-.36,6.26,6.26,0,0,0,1.49-.89A1.41,1.41,0,0,0,270.23,224.47Z"/><path class="cls-2" d="M285.56,218.7v8.63h2.37v.72h-9.15v-.72h2.65V210.81h-2.65v-.72h9.15v.72h-2.37V218h7.17v-7.21h-2.37v-.72h9.15v.72h-2.65v16.52h2.65v.72h-9.15v-.72h2.37V218.7Z"/><path class="cls-2" d="M316.16,223.37l.68.3q-1.8,4.85-6.33,4.84a9.12,9.12,0,0,1-4.84-1.29,8.84,8.84,0,0,1-3.25-3.48,9.88,9.88,0,0,1-1.14-4.66,10.19,10.19,0,0,1,1-4.35,9.25,9.25,0,0,1,3.14-3.65,8.64,8.64,0,0,1,5.05-1.45,8,8,0,0,1,3.2.62,5.5,5.5,0,0,1,2.21,1.64,3.37,3.37,0,0,1,.79,2.12,2.78,2.78,0,0,1-.7,2,2.22,2.22,0,0,1-1.7.75,2.5,2.5,0,0,1-1.89-.76,2.57,2.57,0,0,1-.72-1.85,2.76,2.76,0,0,1,.24-1,4.13,4.13,0,0,1,.6-1,1.59,1.59,0,0,0,.38-.75c0-.25-.19-.49-.57-.73a3.25,3.25,0,0,0-1.71-.36,6.75,6.75,0,0,0-2.26.35,3.18,3.18,0,0,0-1.67,1.69,8.81,8.81,0,0,0-.7,4v5.31a8.6,8.6,0,0,0,1,4.53c.65,1.05,1.87,1.58,3.64,1.58a5,5,0,0,0,3.34-1.08A8.19,8.19,0,0,0,316.16,223.37Z"/><path class="cls-2" d="M325.39,218.19h1.53a2.8,2.8,0,0,0,2.5-1,7.43,7.43,0,0,0,1-2.66,16.33,16.33,0,0,1,.72-2.75,3.34,3.34,0,0,1,1.13-1.58,3.44,3.44,0,0,1,2.07-.56,3.38,3.38,0,0,1,2.35.84,2.72,2.72,0,0,1,.93,2.11,2.84,2.84,0,0,1-.62,1.88,2.05,2.05,0,0,1-1.66.74,2.47,2.47,0,0,1-1.54-.5,1.58,1.58,0,0,1-.65-1.31,3.24,3.24,0,0,1,.13-.94c0-.06,0-.13.07-.23a.74.74,0,0,0,.06-.27c0-.4-.34-.59-1-.59-.42,0-.81,1.09-1.17,3.28a10.38,10.38,0,0,1-.82,2.56,2.3,2.3,0,0,1-1.41,1.12v.12c2.48.15,4.12.68,4.91,1.61a6.89,6.89,0,0,1,1.49,3.74,12.18,12.18,0,0,0,.43,2.27.93.93,0,0,0,1,.68,1.72,1.72,0,0,0,1-.34,2.1,2.1,0,0,0,.72-.8l.55.3a4.25,4.25,0,0,1-1.76,1.94,5,5,0,0,1-2.57.67,3,3,0,0,1-2.27-.78,3.74,3.74,0,0,1-1-1.71,24.21,24.21,0,0,1-.43-2.61,9.46,9.46,0,0,0-.8-3,2.46,2.46,0,0,0-1.21-1.24,5.35,5.35,0,0,0-1.82-.25h-.89l-.93,0v8.42h2.66v.72h-9.44v-.72h2.66V210.81h-2.66v-.72h9.44v.72h-2.66Z"/><path class="cls-2" d="M358.75,225.82l.58.54a4.89,4.89,0,0,1-4.21,2.15,3.39,3.39,0,0,1-3.5-2.73,9.53,9.53,0,0,1-6.15,2.73,5,5,0,0,1-3.55-1.25,4.41,4.41,0,0,1-1.35-3.39,5,5,0,0,1,2.47-4.38c1.64-1.06,4-1.6,7.18-1.6.62,0,1.09,0,1.4.05v-4.73a3.59,3.59,0,0,0-.52-2.06c-.34-.5-1.11-.76-2.31-.76a6.66,6.66,0,0,0-1.86.24c-.56.16-.83.39-.83.69a2.92,2.92,0,0,0,.42,1.43,2.64,2.64,0,0,1,.55,1.39,2.82,2.82,0,0,1-.65,1.82,2.34,2.34,0,0,1-1.93.79,2.41,2.41,0,0,1-1.92-.81,3.1,3.1,0,0,1-.69-2.09,3,3,0,0,1,1.05-2.29,7,7,0,0,1,2.67-1.45,11.34,11.34,0,0,1,3.23-.48,10.17,10.17,0,0,1,4.66.82,3.66,3.66,0,0,1,1.89,1.89,7.52,7.52,0,0,1,.37,2.48v11c0,.92.32,1.39,1,1.39a2,2,0,0,0,1.08-.43A3.8,3.8,0,0,0,358.75,225.82Zm-7.13-1.35v-5.86a13.5,13.5,0,0,0-3.75.41,3.16,3.16,0,0,0-1.95,1.53,6.82,6.82,0,0,0-.62,3.28,2.57,2.57,0,0,0,2.91,2.91,3.61,3.61,0,0,0,1.26-.36,6.13,6.13,0,0,0,1.5-.89A1.39,1.39,0,0,0,351.62,224.47Z"/><path class="cls-2" d="M359.46,226.4l.5-.58a2.32,2.32,0,0,0,1.65,1c.64,0,1.07-.79,1.27-2.36a11.71,11.71,0,0,1,.67-2.6,4.05,4.05,0,0,1,1.73-1.81,9.66,9.66,0,0,1,3.88-1.08v-.16q-3.37,0-4.92-1.28a3.92,3.92,0,0,1-1.53-3.1,3.58,3.58,0,0,1,.71-2.16,4.83,4.83,0,0,1,2.26-1.58,10.74,10.74,0,0,1,3.93-.61h10.17v.72h-2.66v16.52h2.66v.72h-9.44v-.72H373V219.2h-1.86a3.59,3.59,0,0,0-2.28.61,3,3,0,0,0-1,1.47,18,18,0,0,0-.53,2.39,9.31,9.31,0,0,1-1.26,3.71,2.72,2.72,0,0,1-2.32,1.13A5.29,5.29,0,0,1,359.46,226.4ZM373,218.48v-7.67h-2.36c-2,0-3,.86-3.22,2.58,0,.14,0,.35,0,.62s0,.47,0,.59a8.77,8.77,0,0,0,0,1,3,3,0,0,0,3.3,2.86Z"/><path class="cls-2" d="M383.57,220.37v-1.89h8.89v1.89Z"/><rect class="cls-2" x="143.41" y="86.54" width="220.95" height="2"/></g></g></svg>